<?xml version="1.0" standalone="no"?>
<!DOCTYPE svg PUBLIC "-//W3C//DTD SVG 20010904//EN"
 "http://www.w3.org/TR/2001/REC-SVG-20010904/DTD/svg10.dtd">
<svg version="1.0" xmlns="http://www.w3.org/2000/svg"
 width="600.000000pt" height="600.000000pt" viewBox="0 0 600.000000 600.000000"
 preserveAspectRatio="xMidYMid meet">
<metadata>
Created by potrace 1.11, written by Peter Selinger 2001-2013
</metadata>
<g transform="translate(0.000000,600.000000) scale(0.100000,-0.100000)"
fill="#000000" stroke="none">
<path d="M2700 5793 c-384 -70 -572 -511 -356 -836 151 -227 445 -305 693
-185 83 40 95 55 83 97 -11 40 -36 70 -69 83 -20 7 -37 3 -85 -21 -342 -172
-690 222 -475 536 74 107 190 164 323 159 154 -6 296 -118 335 -262 9 -35 18
-44 53 -59 24 -11 65 -35 92 -54 l49 -35 -6 74 c-8 94 -9 102 -41 179 -31 77
-61 119 -134 188 -123 116 -294 166 -462 136z"/>
<path d="M2968 5295 c-2 -2 -21 -5 -43 -8 -124 -15 -272 -121 -321 -228 -17
-38 -17 -40 2 -55 42 -33 111 -57 176 -60 58 -3 71 -1 95 20 83 69 176 69 247
0 123 -119 13 -332 -153 -298 -26 5 -65 6 -91 1 -66 -12 -197 -1 -264 22 -33
12 -62 21 -65 21 -4 0 -5 -18 -3 -40 2 -22 0 -40 -6 -40 -5 0 -61 29 -124 65
-110 62 -145 72 -169 48 -5 -5 -33 -62 -63 -127 -30 -65 -58 -122 -63 -126 -4
-5 -57 8 -118 27 -60 19 -128 37 -150 40 -35 4 -43 1 -53 -19 -7 -13 -14 -32
-17 -43 -2 -11 -11 -51 -20 -90 -9 -38 -18 -85 -22 -103 -5 -28 -33 -58 -44
-48 -4 4 -119 15 -216 21 -79 5 -84 -4 -86 -173 -2 -78 -5 -143 -7 -146 -5 -4
-44 -10 -140 -21 -115 -13 -140 -18 -158 -36 -22 -20 -22 -18 3 -144 8 -38 17
-88 21 -110 3 -22 7 -44 7 -49 1 -5 -57 -30 -129 -55 -72 -25 -138 -52 -147
-59 -23 -19 -15 -53 42 -182 28 -63 51 -117 51 -121 0 -7 -43 -35 -99 -66 -80
-44 -142 -87 -151 -104 -14 -26 3 -59 90 -179 l69 -95 -110 -105 c-67 -65
-109 -113 -109 -125 0 -12 41 -59 109 -123 l109 -104 -85 -121 c-75 -106 -84
-124 -77 -146 7 -19 43 -46 126 -96 64 -38 119 -73 123 -76 3 -3 -18 -60 -46
-125 -58 -135 -65 -166 -42 -186 9 -7 75 -34 147 -59 72 -26 130 -51 129 -55
-1 -5 -13 -69 -27 -142 -36 -183 -41 -176 149 -196 33 -4 79 -9 103 -12 l42
-6 1 -47 c0 -25 1 -93 3 -150 4 -129 9 -135 106 -127 36 4 97 9 135 12 39 3
74 7 79 7 8 2 21 -32 32 -83 21 -102 46 -196 56 -207 17 -21 58 -15 189 27 68
21 125 38 126 36 2 -1 27 -56 58 -121 60 -132 76 -155 105 -155 10 0 75 31
144 69 l125 69 83 -113 c46 -63 91 -117 101 -121 30 -10 59 3 108 48 26 24 60
54 75 67 16 13 41 35 55 48 l27 24 93 -82 c52 -45 100 -89 107 -96 7 -7 27
-13 43 -13 25 0 40 14 115 115 48 63 91 115 96 115 5 0 60 -29 123 -65 63 -36
126 -65 139 -65 22 0 66 40 66 60 0 20 102 220 109 215 17 -10 256 -81 269
-79 6 1 16 2 22 3 16 2 28 34 49 128 11 50 25 110 31 133 l11 43 62 -7 c176
-19 232 -19 250 -2 9 10 17 27 18 39 0 12 1 77 3 144 1 67 4 124 6 126 3 3 37
7 75 11 39 4 81 8 95 10 14 3 45 7 70 10 45 6 66 20 71 46 2 13 -14 121 -28
185 -2 11 -6 31 -9 45 -3 14 -7 32 -10 41 -5 17 -2 19 116 59 152 52 168 60
174 84 4 17 -11 64 -49 152 -30 70 -55 130 -55 134 0 5 59 42 179 110 99 57
99 71 -7 220 l-82 115 38 34 c102 92 182 172 182 181 0 21 -22 55 -54 83 -93
85 -156 148 -156 158 0 5 35 58 77 117 76 105 88 133 72 162 -4 8 -62 47 -128
85 -131 77 -127 69 -91 150 47 105 80 188 80 199 0 29 -33 48 -150 89 -69 23
-130 46 -137 50 -8 5 -9 17 -3 40 10 34 18 76 25 117 2 14 8 46 14 72 19 83
-1 103 -109 113 -41 4 -84 9 -95 11 -11 2 -39 5 -62 6 -42 1 -43 2 -43 37 -4
249 -5 263 -28 281 -12 10 -32 17 -45 15 -12 -2 -58 -6 -102 -9 -44 -4 -98 -9
-121 -12 l-41 -5 -18 83 c-10 46 -20 88 -21 93 -1 6 -5 24 -8 42 -11 57 -25
82 -50 89 -16 4 -72 -9 -156 -36 -73 -23 -135 -38 -138 -35 -4 3 -32 61 -62
128 -76 167 -77 167 -218 89 -59 -33 -117 -64 -128 -70 -22 -11 -22 -11 -23
126 -1 75 -3 146 -5 157 -27 132 -100 243 -203 308 -59 37 -144 65 -211 70
-33 3 -62 4 -64 2z m228 -910 c341 -39 667 -166 929 -363 44 -32 91 -69 105
-81 61 -55 152 -146 197 -198 26 -31 53 -61 60 -68 30 -31 156 -230 198 -313
75 -151 147 -354 169 -482 3 -19 8 -46 11 -60 15 -71 20 -151 20 -310 0 -233
-6 -287 -56 -484 -145 -576 -576 -1061 -1140 -1284 -67 -27 -190 -67 -196 -64
-2 1 -21 -5 -43 -13 -22 -8 -43 -14 -45 -14 -5 1 -69 -9 -110 -17 -63 -12
-167 -19 -295 -19 -193 0 -279 10 -450 52 -293 71 -571 215 -790 408 -288 254
-494 584 -589 943 -20 73 -47 226 -55 307 -6 64 -8 276 -2 335 26 272 120 576
239 775 205 341 450 577 777 747 165 86 402 166 543 184 23 3 48 7 56 10 7 2
52 7 100 10 47 4 87 7 88 8 6 5 226 -2 279 -9z"/>
<path d="M2830 4113 c-341 -49 -569 -140 -813 -325 -140 -106 -290 -272 -395
-433 -32 -50 -134 -268 -156 -335 -106 -320 -110 -684 -9 -1005 25 -81 33
-100 86 -215 92 -198 257 -407 437 -553 520 -420 1236 -479 1822 -150 245 138
482 380 620 633 77 141 147 342 173 495 20 122 26 329 12 460 -37 354 -200
695 -456 955 -47 48 -85 80 -210 182 -8 7 -51 34 -95 61 -190 115 -394 188
-611 221 -82 12 -345 18 -405 9z m1103 -742 c15 -2 6 -29 -10 -33 -15 -3
-1815 -3 -1850 1 -15 1 -17 28 -3 33 9 3 1844 2 1863 -1z m181 -560 c35 -17
71 -42 79 -54 14 -22 14 -26 -6 -48 -48 -53 -51 -53 -107 -15 -63 43 -130 49
-172 16 -62 -49 -33 -95 87 -135 109 -36 140 -51 179 -86 45 -39 60 -78 54
-140 -19 -196 -307 -258 -470 -101 -43 41 -45 46 -20 70 55 54 57 55 88 28 75
-62 151 -82 217 -55 38 16 60 60 47 93 -9 26 -63 66 -88 66 -7 0 -49 14 -94
31 -126 49 -174 109 -162 204 17 141 206 206 368 126z m-2223 10 c1 -9 2 -65
3 -126 l1 -110 155 0 154 0 0 123 c-1 117 0 123 20 127 28 5 93 2 100 -6 11
-11 8 -652 -4 -659 -8 -5 -86 -6 -111 -1 -3 0 -6 56 -6 124 -1 67 -2 132 -2
145 l-1 23 -152 -3 -153 -3 0 -137 c0 -75 -4 -140 -8 -144 -11 -12 -107 -12
-114 -1 -8 13 -6 643 1 656 3 5 31 9 61 9 43 -1 55 -5 56 -17z m994 -3 c40
-22 71 -56 90 -100 21 -52 19 -97 -9 -151 -23 -46 -23 -47 -3 -64 60 -55 74
-155 31 -232 -27 -51 -92 -100 -134 -102 -73 -4 -337 -4 -347 -1 -10 3 -13 78
-13 331 0 180 3 330 6 333 3 3 83 5 177 4 136 -2 178 -6 202 -18z m616 5 c140
-59 175 -250 63 -352 -51 -48 -94 -61 -201 -61 -59 0 -83 -4 -84 -12 0 -7 -1
-61 -1 -120 0 -71 -4 -108 -12 -110 -9 -4 -77 -3 -106 1 -10 1 -15 653 -4 663
9 10 318 2 345 -9z m434 -1173 c0 -13 -111 -15 -929 -18 -555 -1 -934 2 -939
7 -30 30 14 31 936 29 821 -3 932 -5 932 -18z"/>
<path d="M2629 2725 c0 -3 0 -36 0 -75 0 -38 0 -74 0 -78 1 -12 149 -12 180
-1 56 22 70 93 25 134 -24 23 -35 25 -115 25 -49 0 -89 -2 -90 -5z"/>
<path d="M2628 2408 c-1 -29 -2 -71 0 -93 l3 -40 82 2 c45 1 92 2 105 2 34 1
72 47 72 88 0 25 -8 43 -29 64 -29 28 -32 29 -129 29 l-100 0 -4 -52z"/>
<path d="M3283 2716 c-4 -5 -7 -50 -7 -98 -1 -102 -4 -100 100 -95 37 1 71 9
87 20 29 19 47 69 38 104 -8 30 -47 73 -68 74 -78 6 -145 3 -150 -5z"/>
</g>
</svg>
