<?xml version="1.0" encoding="utf-8"?>
<!-- Generator: Adobe Illustrator 21.0.0, SVG Export Plug-In . SVG Version: 6.00 Build 0)  -->
<svg version="1.1" id="Layer_1" xmlns="http://www.w3.org/2000/svg" xmlns:xlink="http://www.w3.org/1999/xlink" x="0px" y="0px"
	 viewBox="0 0 48 51" style="enable-background:new 0 0 48 51;" xml:space="preserve">
<style type="text/css">
	.st0{fill:#4C4C4C;}
</style>
<g>
	<g transform="translate(-30 -260)">
		<g>
			<g>
				<path class="st0" d="M76.909,285.631c-2.152,0-9.718-9.241-5.824-10.794c1.109-0.444,0.133-2.086-1.952-1.797
					c-2.485,0.333-3.45,1.797-3.905,3.594c-4.204,0-5.414,3.195-7.477,5.857l7.189,8.631c0.655-1.054,1.309-1.886,2.241-1.886
					c1.952,1.797,5.314,4.105,7.81,1.797C76.953,289.225,78.861,285.631,76.909,285.631z"/>
				<path class="st0" d="M53.513,285.631c0,0-3.406-0.987-6.7-1.109c-3.206-0.122-9.496,1.109-9.496,1.109h-0.011
					c-1.642-1.01-2.995-2.296-3.384-3.949c-0.854-3.55,2.807-7.311,2.873-7.377c0.699-0.699,0.699-1.841,0-2.54
					c-0.699-0.699-1.842-0.699-2.54,0c-0.211,0.211-5.136,5.214-3.838,10.738c0.588,2.485,2.319,4.571,5.103,6.257v19.369
					c0,1.487,1.209,2.696,2.696,2.696c1.487,0,2.696-1.209,2.696-2.696v-8.098c0,0,3.639,1.453,7.91,1.553
					c4.826,0.011,8.287-1.553,8.287-1.553v8.098c0,1.487,1.209,2.696,2.696,2.696c1.487,0,2.696-1.209,2.696-2.696v-13.501
					c0.344-0.322,0.643-0.699,0.932-1.098l-7.588-9.108C55.188,284.921,54.433,285.343,53.513,285.631z"/>
			</g>
		</g>
	</g>
	<g>
		<path class="st0" d="M25.587,21.66c-0.355,0-0.655,0.288-0.655,0.655c0,0.366,0.288,0.655,0.655,0.655
			c0.366,0,0.655-0.288,0.655-0.655C26.242,21.948,25.953,21.66,25.587,21.66z"/>
		<path class="st0" d="M25.587,20.428c-0.222,0-0.444,0.044-0.643,0.122L8.026,0.216C7.815-0.039,7.427-0.072,7.172,0.138
			C6.917,0.349,6.884,0.737,7.094,0.993l16.906,20.323c-0.177,0.288-0.288,0.621-0.288,0.987c0,1.032,0.843,1.875,1.875,1.875
			c1.032,0,1.875-0.843,1.875-1.875S26.619,20.428,25.587,20.428z M25.587,22.969c-0.366,0-0.655-0.288-0.655-0.655
			c0-0.366,0.3-0.655,0.655-0.655c0.366,0,0.655,0.288,0.655,0.655C26.242,22.68,25.953,22.969,25.587,22.969z"/>
	</g>
</g>
</svg>
