<?xml version="1.0" encoding="utf-8"?>
<!-- Generator: Adobe Illustrator 21.0.0, SVG Export Plug-In . SVG Version: 6.00 Build 0)  -->
<svg version="1.1" id="Layer_1" xmlns="http://www.w3.org/2000/svg" xmlns:xlink="http://www.w3.org/1999/xlink" x="0px" y="0px"
	 viewBox="0 0 100 80" style="enable-background:new 0 0 100 80;" xml:space="preserve">
<style type="text/css">
	.st0{fill:#4C4C4C;}
</style>
<g>
	<g transform="translate(-30 -260)">
		<g>
			<g>
				<path class="st0" d="M118.391,300.456c-3.335,0-15.061-14.321-9.026-16.728c1.719-0.688,0.206-3.232-3.026-2.785
					c-3.851,0.516-5.347,2.785-6.052,5.57c-6.516,0-8.39,4.951-11.588,9.078l11.141,13.376c1.014-1.633,2.029-2.923,3.473-2.923
					c3.026,2.785,8.235,6.361,12.104,2.785C118.46,306.026,121.417,300.456,118.391,300.456z"/>
				<path class="st0" d="M82.132,300.456c0,0-5.278-1.53-10.384-1.719c-4.969-0.189-14.717,1.719-14.717,1.719h-0.017
					c-2.544-1.565-4.642-3.559-5.244-6.121c-1.324-5.502,4.35-11.33,4.453-11.433c1.083-1.083,1.083-2.854,0-3.937
					c-1.083-1.083-2.854-1.083-3.937,0c-0.327,0.327-7.96,8.081-5.949,16.642c0.911,3.851,3.593,7.083,7.909,9.697v30.018
					c0,2.304,1.874,4.178,4.178,4.178c2.304,0,4.178-1.874,4.178-4.178v-12.551c0,0,5.639,2.252,12.258,2.407
					c7.479,0.017,12.843-2.407,12.843-2.407v12.551c0,2.304,1.874,4.178,4.178,4.178c2.304,0,4.178-1.874,4.178-4.178v-20.923
					c0.533-0.499,0.997-1.083,1.444-1.702l-11.76-14.115C84.728,299.355,83.559,300.009,82.132,300.456z"/>
			</g>
		</g>
	</g>
	<g>
		<path class="st0" d="M55.347,34.301c-0.55,0-1.014,0.447-1.014,1.014s0.447,1.014,1.014,1.014s1.014-0.447,1.014-1.014
			S55.914,34.301,55.347,34.301z"/>
		<path class="st0" d="M55.347,32.392c-0.344,0-0.688,0.069-0.997,0.189L28.131,1.068c-0.327-0.395-0.928-0.447-1.324-0.12
			c-0.395,0.327-0.447,0.928-0.12,1.324l26.201,31.497c-0.275,0.447-0.447,0.963-0.447,1.53c0,1.599,1.307,2.906,2.906,2.906
			s2.906-1.307,2.906-2.906C58.253,33.699,56.946,32.392,55.347,32.392z M55.347,36.33c-0.567,0-1.014-0.447-1.014-1.014
			s0.464-1.014,1.014-1.014c0.567,0,1.014,0.447,1.014,1.014S55.914,36.33,55.347,36.33z"/>
	</g>
</g>
</svg>
